<svg xmlns="http://www.w3.org/2000/svg" xmlns:xlink="http://www.w3.org/1999/xlink" width="525.831" height="115.253" viewBox="0 0 525.831 115.253">
  <defs>
    <filter id="Trazado_442" x="0" y="0" width="525.831" height="115.253" filterUnits="userSpaceOnUse">
      <feOffset input="SourceAlpha"/>
      <feGaussianBlur stdDeviation="6.5" result="blur"/>
      <feFlood flood-color="#9a9a9a" flood-opacity="0.706"/>
      <feComposite operator="in" in2="blur"/>
      <feComposite in="SourceGraphic"/>
    </filter>
    <clipPath id="clip-path">
      <rect id="Rectángulo_66" data-name="Rectángulo 66" width="77.351" height="41.176" transform="translate(570 847)" fill="#fff" stroke="#707070" stroke-width="1"/>
    </clipPath>
  </defs>
  <g id="Grupo_52" data-name="Grupo 52" transform="translate(-55.5 -639.469)">
    <g id="Grupo_45" data-name="Grupo 45" transform="translate(0 -53)">
      <g transform="matrix(1, 0, 0, 1, 55.5, 692.47)" filter="url(#Trazado_442)">
        <g id="Trazado_442-2" data-name="Trazado 442" transform="translate(19.5 19.5)" fill="#fff">
          <path d="M 450.5537109375 74.25286865234375 L 36.27682876586914 74.25286865234375 C 31.66114234924316 74.25286865234375 27.18364334106445 73.30281066894531 22.96864318847656 71.42912292480469 C 18.88957977294922 69.61587524414062 15.22414302825928 67.01786804199219 12.07420539855957 63.70724868774414 C 8.91751766204834 60.38968276977539 6.438580513000488 56.52487182617188 4.706205368041992 52.22024536132812 C 2.910517930984497 47.75830841064453 2.000017881393433 43.01643371582031 2.000017881393433 38.12643432617188 C 2.000017881393433 33.23643493652344 2.910517930984497 28.49456024169922 4.706205368041992 24.03262138366699 C 6.438580513000488 19.72799682617188 8.91751766204834 15.86318397521973 12.07420539855957 12.54562187194824 C 15.22414302825928 9.234996795654297 18.88957977294922 6.636996746063232 22.96864318847656 4.823746681213379 C 27.18364334106445 2.950059413909912 31.66114234924316 1.999996781349182 36.27682876586914 1.999996781349182 L 450.5537109375 1.999996781349182 C 455.1694030761719 1.999996781349182 459.6468811035156 2.950059413909912 463.8619079589844 4.823746681213379 C 467.9409484863281 6.636996746063232 471.6063842773438 9.234996795654297 474.7563171386719 12.54562187194824 C 477.9130249023438 15.86318397521973 480.3919677734375 19.72799682617188 482.1243286132812 24.03262138366699 C 483.9200134277344 28.49456024169922 484.8305053710938 33.23643493652344 484.8305053710938 38.12643432617188 C 484.8305053710938 43.01643371582031 483.9200134277344 47.75830841064453 482.1243286132812 52.22024536132812 C 480.3919677734375 56.52487182617188 477.9130249023438 60.38968276977539 474.7563171386719 63.70724868774414 C 471.6063842773438 67.01786804199219 467.9409484863281 69.61587524414062 463.8619079589844 71.42912292480469 C 459.6468811035156 73.30281066894531 455.1694030761719 74.25286865234375 450.5537109375 74.25286865234375 Z" stroke="none"/>
          <path d="M 36.27682495117188 4 C 31.94284057617188 4 27.73870849609375 4.891998291015625 23.78106689453125 6.65130615234375 C 19.94277954101562 8.357559204101562 16.491455078125 10.80449676513672 13.5230712890625 13.92424774169922 C 10.5413818359375 17.05799865722656 8.19921875 20.71012115478516 6.56158447265625 24.7793083190918 C 4.86181640625 29.0028076171875 4.000030517578125 33.49343490600586 4.000030517578125 38.12643432617188 C 4.000030517578125 42.75943374633789 4.86181640625 47.25006103515625 6.56158447265625 51.47355651855469 C 8.19921875 55.54274749755859 10.5413818359375 59.19486999511719 13.5230712890625 62.32862091064453 C 16.491455078125 65.44837188720703 19.94277954101562 67.89530944824219 23.78106689453125 69.6015625 C 27.73870849609375 71.36087036132812 31.94284057617188 72.25286865234375 36.27682495117188 72.25286865234375 L 450.5536499023438 72.25286865234375 C 454.8876342773438 72.25286865234375 459.0918273925781 71.36087036132812 463.0493774414062 69.6015625 C 466.8876953125 67.89530944824219 470.3390197753906 65.44837188720703 473.3074035644531 62.32862091064453 C 476.2891540527344 59.19486999511719 478.6313171386719 55.54274749755859 480.2689514160156 51.47355651855469 C 481.9687194824219 47.25006103515625 482.8305053710938 42.75943374633789 482.8305053710938 38.12643432617188 C 482.8305053710938 33.49343490600586 481.9687194824219 29.0028076171875 480.2689514160156 24.7793083190918 C 478.6313171386719 20.71012115478516 476.2891540527344 17.05799865722656 473.3074035644531 13.92424774169922 C 470.3390197753906 10.80449676513672 466.8876953125 8.357559204101562 463.0493774414062 6.65130615234375 C 459.0918273925781 4.891998291015625 454.8876342773438 4 450.5536499023438 4 L 36.27682495117188 4 M 36.27682495117188 0 L 450.5536499023438 0 C 470.5887756347656 0 486.8305053710938 17.06980895996094 486.8305053710938 38.12643432617188 C 486.8305053710938 59.18305969238281 470.5887756347656 76.25286865234375 450.5536499023438 76.25286865234375 L 36.27682495117188 76.25286865234375 C 16.24169921875 76.25286865234375 3.0517578125e-05 59.18305969238281 3.0517578125e-05 38.12643432617188 C 3.0517578125e-05 17.06980895996094 16.24169921875 0 36.27682495117188 0 Z" stroke="none"/>
        </g>
      </g>
      <text id="See_Projects" data-name="See Projects" transform="translate(220.657 759.931)" font-size="35" font-family="Helvetica-Light, Helvetica" font-weight="300"><tspan x="0" y="0">See Projects</tspan></text>
    </g>
    <g id="Enmascarar_grupo_10" data-name="Enmascarar grupo 10" transform="translate(-460.219 -170.983)" clip-path="url(#clip-path)">
      <g id="html-coding" transform="translate(577.347 847)">
        <g id="Grupo_51" data-name="Grupo 51" transform="translate(0 0)">
          <path id="Trazado_446" data-name="Trazado 446" d="M19.174,85.843,0,73.167V66.146l19.174-12.6v8.246L5.813,69.569l13.361,8.074Z" transform="translate(0 -49.103)" fill="#010002"/>
          <path id="Trazado_447" data-name="Trazado 447" d="M66.749,83.829,79.465,42.653h4.017L70.737,83.829Z" transform="translate(-44.301 -42.653)" fill="#010002"/>
          <path id="Trazado_448" data-name="Trazado 448" d="M129.294,85.838v-8.2l13.358-8.008-13.358-7.946V53.534l19.174,12.62v6.978Z" transform="translate(-85.811 -49.098)" fill="#010002"/>
        </g>
      </g>
    </g>
  </g>
</svg>
